<svg width="40" height="40" viewBox="0 0 40 40" fill="none" xmlns="http://www.w3.org/2000/svg">
    <circle cx="20" cy="20" r="18" fill="url(#gradient1)" stroke="white" stroke-width="2"/>
    <path d="M13 16C13 13.7909 14.7909 12 17 12H23C25.2091 12 27 13.7909 27 16V24C27 26.2091 25.2091 28 23 28H17C14.7909 28 13 26.2091 13 24V16Z" fill="white" fill-opacity="0.9"/>
    <circle cx="17" cy="17" r="1.5" fill="#FF6B35"/>
    <circle cx="23" cy="17" r="1.5" fill="#FF6B35"/>
    <path d="M16 23C17.5 25 22.5 25 24 23" stroke="#7B2CBF" stroke-width="2" stroke-linecap="round"/>
    <path d="M20 8V12M20 28V32M8 20H12M28 20H32" stroke="#FF6B35" stroke-width="2" stroke-linecap="round"/>
    <defs>
        <linearGradient id="gradient1" x1="2" y1="2" x2="38" y2="38" gradientUnits="userSpaceOnUse">
            <stop stop-color="#FF6B35"/>
            <stop offset="1" stop-color="#7B2CBF"/>
        </linearGradient>
    </defs>
</svg>